<?xml version="1.0" encoding="utf-8"?>
<!-- Generator: Adobe Illustrator 21.1.0, SVG Export Plug-In . SVG Version: 6.00 Build 0)  -->
<svg version="1.1" id="Capa_1" xmlns="http://www.w3.org/2000/svg" xmlns:xlink="http://www.w3.org/1999/xlink" x="0px" y="0px"
	 viewBox="0 0 37 49" style="enable-background:new 0 0 37 49;" xml:space="preserve">
<style type="text/css">
	.st0{fill:#EC1C27;}
</style>
<path class="st0" d="M5.5,8.6C3.7,7.8,2.8,6.1,3.2,4.3C3.6,2.4,5.3,1,7.2,1C7.8,1,8.4,1.1,9,1.4c0.3,0.1,26.1,12.3,25.9,23.1
	C35.1,35.3,9.3,47.5,9,47.6C8.4,47.9,7.8,48,7.2,48c-1.9,0-3.6-1.4-4-3.3c-0.4-1.8,0.5-3.5,2.3-4.3C13.2,36.9,27,28.7,27,24.6
	C27,20.5,13,12,5.5,8.6z"/>
</svg>
