<?xml version="1.0" encoding="utf-8"?>
<!-- Generator: Adobe Illustrator 21.1.0, SVG Export Plug-In . SVG Version: 6.00 Build 0)  -->
<svg version="1.1" id="Capa_1" xmlns="http://www.w3.org/2000/svg" xmlns:xlink="http://www.w3.org/1999/xlink" x="0px" y="0px"
	 viewBox="0 0 68 67" style="enable-background:new 0 0 68 67;" xml:space="preserve">
<style type="text/css">
	.st0{fill:#EC1C27;}
	.st1{fill-rule:evenodd;clip-rule:evenodd;fill:#5C5C5C;}
	.st2{fill-rule:evenodd;clip-rule:evenodd;fill:#EC1C27;}
</style>
<path class="st0" d="M1365.4-62.4c-1-0.5-1.5-1.4-1.3-2.4c0.2-1.1,1.2-1.8,2.2-1.8c0.3,0,0.7,0.1,1,0.2c0.1,0.1,14.6,6.9,14.5,12.9
	c0.1,6-14.3,12.8-14.5,12.9c-0.3,0.2-0.7,0.2-1,0.2c-1.1,0-2-0.8-2.2-1.8c-0.2-1,0.3-2,1.3-2.4c4.3-1.9,12-6.6,12-8.9
	C1377.5-55.7,1369.6-60.5,1365.4-62.4z"/>
<path class="st1" d="M1334.1-38.4C1334.1-38.4,1334.1-38.4,1334.1-38.4c0,0.8-0.6,1.4-1.4,1.4h-10.8c0.8-0.2,1.4-0.9,1.4-1.8
	c0,0,0,0,0,0h0c0,0,0-6.6-4.8-8.9c-2.1-1-2.2-0.8-3.2-1.1l0-2.8c0,0-1.1-0.9-1.5-3.5c-0.7,0.2-0.9-0.8-1-1.5c0-0.6-0.4-2.6,0.5-2.4
	c-0.2-1.3-0.3-2.5-0.2-3.1c0.2-2.2,2.3-4.5,5.6-4.7c3.9,0.2,5.4,2.5,5.6,4.7c0.1,0.6-0.1,1.8-0.3,3.1c0.9-0.2,0.5,1.8,0.4,2.4
	c0,0.7-0.3,1.7-1,1.5c-0.4,2.7-1.5,3.5-1.5,3.5l0,2.8c0,0,0.7,0.4,3.7,1.6c3,1.2,2.1,0.3,4.5,1.5
	C1334.1-43.6,1334.1-38.4,1334.1-38.4L1334.1-38.4z M1312.4-48.1c3.3,1.4,2.3,0.3,4.9,1.7c4.2,2.1,4.2,7.9,4.2,7.9h0c0,0,0,0,0,0
	c0,0.9-0.7,1.6-1.6,1.6h-30.8c-0.9,0-1.6-0.7-1.6-1.6c0,0,0,0,0,0h0c0,0,0-5.8,4.2-7.9c2.7-1.3,1.6-0.3,4.9-1.6
	c3.3-1.4,4.1-1.8,4.1-1.8l0-3.1c0,0-1.2-0.9-1.6-3.9c-0.8,0.2-1-0.9-1.1-1.6c0-0.7-0.4-2.9,0.5-2.7c-0.2-1.4-0.3-2.7-0.3-3.4
	c0.2-2.4,2.6-4.9,6.2-5.1c4.2,0.2,5.9,2.7,6.1,5.1c0.1,0.7-0.1,2-0.3,3.4c0.9-0.2,0.5,2,0.5,2.7c0,0.7-0.3,1.8-1.1,1.6
	c-0.4,2.9-1.6,3.9-1.6,3.9l0,3.1C1308.3-49.9,1309.1-49.4,1312.4-48.1"/>
<path class="st2" d="M64.4,61.2H3.8c-1.4,0-2.6-1.2-2.6-2.6v-1c0-1.4,1.1-2.6,2.6-2.6h60.7c1.4,0,2.6,1.1,2.6,2.6v1
	C67,60.1,65.9,61.2,64.4,61.2 M54.7,52h-6.2c-1.7,0-3.1-1.4-3.1-3.1V8.8c0-1.7,1.4-3.1,3.1-3.1h6.2c1.7,0,3.1,1.4,3.1,3.1v40.1
	C57.7,50.6,56.4,52,54.7,52 M37.2,52H31c-1.7,0-3.1-1.4-3.1-3.1V23.2c0-1.7,1.4-3.1,3.1-3.1h6.2c1.7,0,3.1,1.4,3.1,3.1v25.7
	C40.3,50.6,38.9,52,37.2,52 M19.7,52h-6.2c-1.7,0-3.1-1.4-3.1-3.1V37.6c0-1.7,1.4-3.1,3.1-3.1h6.2c1.7,0,3.1,1.4,3.1,3.1v11.3
	C22.8,50.6,21.4,52,19.7,52"/>
</svg>
