<svg xmlns="http://www.w3.org/2000/svg" xmlns:xlink="http://www.w3.org/1999/xlink" viewBox="0 0 453.63 453.63"><defs><style>.cls-1{fill:#ec2024;}.cls-2{fill:none;}.cls-3{fill:url(#Degradado_sin_nombre_9);}.cls-4{clip-path:url(#clip-path);}.cls-5{clip-path:url(#clip-path-2);}.cls-6{clip-path:url(#clip-path-3);}.cls-7{fill:#ea222a;}.cls-10,.cls-12,.cls-7,.cls-8,.cls-9{fill-rule:evenodd;}.cls-8{fill:#0a80c2;}.cls-9{fill:#ffe00f;}.cls-10{fill:#f7981f;}.cls-11,.cls-12{fill:#231f20;}.cls-13{fill:#fff;}</style><linearGradient id="Degradado_sin_nombre_9" x1="230.31" y1="11.37" x2="230.31" y2="465" gradientUnits="userSpaceOnUse"><stop offset="0" stop-color="#b3b3b3"/><stop offset="1"/></linearGradient><clipPath id="clip-path" transform="translate(-3.5 -11.37)"><path class="cls-1" d="M103.3,11.37A99.8,99.8,0,0,0,3.5,111.16v254A99.8,99.8,0,0,0,103.3,465h254a99.8,99.8,0,0,0,99.8-99.8v-254a99.8,99.8,0,0,0-99.8-99.79Z"/></clipPath><clipPath id="clip-path-2" transform="translate(-3.5 -11.37)"><polygon class="cls-2" points="460.62 118.42 356.78 203.22 216.46 226.14 120.2 307.37 57.55 296.93 0 326.76 0 0 460.62 0 460.62 118.42"/></clipPath><clipPath id="clip-path-3" transform="translate(-3.5 -11.37)"><path class="cls-3" d="M103.3,11.37A99.8,99.8,0,0,0,3.5,111.16v254A99.8,99.8,0,0,0,103.3,465h254a99.8,99.8,0,0,0,99.8-99.8v-254a99.8,99.8,0,0,0-99.8-99.79Z"/></clipPath></defs><title>inversiones</title><g id="Capa_2" data-name="Capa 2"><g id="Capa_1-2" data-name="Capa 1"><path class="cls-1" d="M103.3,11.37A99.8,99.8,0,0,0,3.5,111.16v254A99.8,99.8,0,0,0,103.3,465h254a99.8,99.8,0,0,0,99.8-99.8v-254a99.8,99.8,0,0,0-99.8-99.79Z" transform="translate(-3.5 -11.37)"/><g class="cls-4"><rect class="cls-1" width="453.63" height="453.63"/></g><g class="cls-5"><path class="cls-3" d="M103.3,11.37A99.8,99.8,0,0,0,3.5,111.16v254A99.8,99.8,0,0,0,103.3,465h254a99.8,99.8,0,0,0,99.8-99.8v-254a99.8,99.8,0,0,0-99.8-99.79Z" transform="translate(-3.5 -11.37)"/><g class="cls-6"><rect class="cls-3" width="453.63" height="453.63"/></g></g><path class="cls-7" d="M255.52,331.54c.38,3.5.07,18.34-13.4,38.67-14,22.45,8.1,60,52.66,50.42,9.8,3.6,20.38,4.08,27.19,4s17.5-.41,27.27-3.94c44.57,9.51,66.51-28,52.6-50.5-13.51-20.33-13.79-35.17-13.39-38.67Z" transform="translate(-3.5 -11.37)"/><path class="cls-8" d="M322,424.45c-43.55-1.15-51.45-21.51-39.43-25.74,7-2.48,16.22-6.65,16.22-6.65-4.68-23,3-52.29,23.32-52.27S349.83,370,345.2,392.51c0,0,9.28,3.44,16.16,6.2,11.38,4.51,4.15,24.59-39.39,25.74" transform="translate(-3.5 -11.37)"/><path class="cls-9" d="M305.58,408.44C294,375.58,304.21,344.8,322,344.85c17,.09,28.51,29.89,16.53,63.47,0,0-5.66-1.31-17.11-1.31a92.35,92.35,0,0,0-15.81,1.43" transform="translate(-3.5 -11.37)"/><path class="cls-10" d="M322,424.76c17.57,0,31.35-3.82,31.35-9.1s-13.78-9.19-31.35-9.19-31.33,3.85-31.33,9.19,13.79,9.1,31.33,9.1" transform="translate(-3.5 -11.37)"/><path class="cls-8" d="M264,347.75h21.07a6.08,6.08,0,0,1,6,6.12V368.3a6.08,6.08,0,0,1-6,6.11H264a6.09,6.09,0,0,1-6-6.11V353.87a6.09,6.09,0,0,1,6-6.12" transform="translate(-3.5 -11.37)"/><path class="cls-11" d="M266.43,351.19h16.62a4.58,4.58,0,0,1,4.59,4.58v10.56a4.6,4.6,0,0,1-4.59,4.64H266.43a4.59,4.59,0,0,1-4.56-4.64V355.77a4.57,4.57,0,0,1,4.56-4.58" transform="translate(-3.5 -11.37)"/><path class="cls-9" d="M287.64,363.69c-7.52-.77-10.21-9.69-10.77-12.5h6.18a4.57,4.57,0,0,1,4.59,4.57Z" transform="translate(-3.5 -11.37)"/><path class="cls-9" d="M272.74,351.19c-.47,2.54-2.86,12.19-10.87,12.58v-8a4.57,4.57,0,0,1,4.56-4.58Z" transform="translate(-3.5 -11.37)"/><path class="cls-8" d="M358.84,347.75h21.1a6.09,6.09,0,0,1,6.06,6.12V368.3a6.09,6.09,0,0,1-6.06,6.11h-21.1a6.07,6.07,0,0,1-6-6.11V353.87a6.07,6.07,0,0,1,6-6.12" transform="translate(-3.5 -11.37)"/><path class="cls-11" d="M361.24,351.19H378a4.58,4.58,0,0,1,4.56,4.58v10.56A4.61,4.61,0,0,1,378,371H361.24a4.61,4.61,0,0,1-4.52-4.64V355.77a4.58,4.58,0,0,1,4.52-4.58" transform="translate(-3.5 -11.37)"/><path class="cls-9" d="M382.54,363.69c-7.54-.77-10.19-9.69-10.81-12.5H378a4.58,4.58,0,0,1,4.56,4.57Z" transform="translate(-3.5 -11.37)"/><path class="cls-9" d="M367.64,351.19c-.52,2.54-2.86,12.19-10.92,12.58v-8a4.58,4.58,0,0,1,4.52-4.58Z" transform="translate(-3.5 -11.37)"/><path class="cls-7" d="M365.57,276c-2.24-7.68-2.63-11.54,4.22-11.54h15.32c9.21-.2,5.43,7.15,4.55,14.32-1.17,9.44-1.17,12.31-1.17,12.31S365.6,276.11,365.57,276" transform="translate(-3.5 -11.37)"/><path class="cls-10" d="M321.86,330.78c-22.64.06-53.91,2-74,3.58-15.39,1.19-27.25-10.71-17.05-22,21.85-24,75-54.22,91.2-54.22,17.13,0,69.41,30.23,91.2,54.22,10.25,11.26-.09,22-15.54,22-17.22,0-53.13-3.52-75.85-3.58" transform="translate(-3.5 -11.37)"/><path class="cls-11" d="M334.18,384.56a3,3,0,1,1,5.9,0,3,3,0,1,1-5.9,0" transform="translate(-3.5 -11.37)"/><path class="cls-12" d="M322,406a99.33,99.33,0,0,0-16.37,1.37c-10.82-31.94-.92-62,16.37-62s27.14,30.15,16.35,62A93.72,93.72,0,0,0,322,406m16,2.49c8.92,1.46,14.87,4.09,14.87,7.13,0,4.59-13.77,8.31-30.81,8.31s-30.83-3.72-30.83-8.31c0-3,5.88-5.67,14.83-7.13,0,0,9.68-1.16,16-1.16s16,1.16,16,1.16m1.37-.94c11.31-33.17.28-63.56-17.33-63.53s-28.62,30.36-17.29,63.53c-8.73,1.74-14.53,4.67-14.53,8.07a4.07,4.07,0,0,0,1.71,3.06c-14.71-6.57-16.06-17.21-8.05-20.14,7-2.47,15.51-5.84,15.51-5.84-4.54-22.29,2.37-52.26,22.65-52.24s27.16,29.95,22.66,52.24c0,0,8.4,3.49,15.46,5.84,7.87,2.72,6.72,13.46-7.94,20.1a4.28,4.28,0,0,0,1.63-3c0-3.4-5.76-6.33-14.48-8.07m27.31-132c-1.72-7-1.78-9.94,4.18-9.94H383.9c8.7-.13,5.09,6.64,4.34,13.49-.49,4.11-.75,7.4-.91,9.95-7-4.95-14-9.48-20.69-13.5M351.52,420.4c41.75,7.21,62.18-28.42,48.75-49.95C390,354.89,387.49,341.8,387.13,335c-27.41-1.42-46.27-2.78-65.13-3-18.92.25-37.76,1.61-65.12,3-.42,6.76-2.89,19.82-13.22,35.41-13.35,21.53,7.12,57.16,48.85,49.95-17.73-6.85-19.89-18.49-10.42-22.19,6.89-2.73,16.18-6.15,16.18-6.15-4.64-23,3.42-53.3,23.73-53.25s28.33,30.28,23.71,53.25c0,0,9.3,3.42,16.19,6.15,9.46,3.7,7.27,15.34-10.38,22.19M322,329.12c-23.53.37-45.87,2-72.16,3.77-16.31,1.06-25.5-10-15.22-21.43C249.78,294.64,301.5,260,322,260s72.15,34.66,87.34,51.48c10.24,11.4,1.1,22.49-15.22,21.43-26.27-1.75-48.57-3.4-72.1-3.77m41.63-55.34c-.2-.69-.39-1.39-.61-2.1-1.11-4.1-.1-8.7,6.91-8.7h15.23c9,0,8,6.29,6.42,12.39a95.62,95.62,0,0,0-2.32,15.07s12.46,9.31,19.4,15.24c21.77,18.65,7.59,30.93-13.23,29.83l-6.14-.32c.16,6.21,2,17.72,11.55,30.78,24.13,29.33-7.84,66.14-53,55.82-7.42,2.45-19.34,3.64-25.85,3.64s-18.39-1.19-25.86-3.64C251,432.11,219,395.3,243.13,366c9.58-13.06,11.39-24.57,11.5-30.78l-6.1.32c-20.84,1.1-35-11.18-13.2-29.83,32.4-27.76,71.55-48.32,86.67-48.45,8.26.06,23.92,6.37,41.65,16.55" transform="translate(-3.5 -11.37)"/><path class="cls-11" d="M285.09,375.08H264a6.77,6.77,0,0,1-6.72-6.79V353.87A6.73,6.73,0,0,1,264,347.1h21.07a6.71,6.71,0,0,1,6.64,6.77v14.42a6.75,6.75,0,0,1-6.64,6.79M264,348.41a5.42,5.42,0,0,0-5.4,5.46v14.42a5.47,5.47,0,0,0,5.4,5.51h21.07a5.44,5.44,0,0,0,5.35-5.51V353.87a5.39,5.39,0,0,0-5.35-5.46Z" transform="translate(-3.5 -11.37)"/><path class="cls-11" d="M379.94,375.08h-21.1a6.72,6.72,0,0,1-6.63-6.79V353.87a6.68,6.68,0,0,1,6.63-6.77h21.1a6.72,6.72,0,0,1,6.67,6.77v14.42a6.76,6.76,0,0,1-6.67,6.79m-21.1-26.67a5.39,5.39,0,0,0-5.35,5.46v14.42a5.45,5.45,0,0,0,5.35,5.51h21.1a5.48,5.48,0,0,0,5.42-5.51V353.87a5.43,5.43,0,0,0-5.42-5.46Z" transform="translate(-3.5 -11.37)"/><path class="cls-13" d="M457.12,127.59V115l-88.06,71.93a19.33,19.33,0,0,0-33.16,13.54c0,.42.09.82.12,1.23L231.47,218.73a19.29,19.29,0,0,0-34.41,17.38l-78.29,66.07-44.11-7.35A19.29,19.29,0,1,0,37,302.1L3.5,319.44v11l38.31-19.86a19.34,19.34,0,0,0,31.51-6.07l48.3,8,81.61-68.86a19.15,19.15,0,0,0,11.45,3.83A19.36,19.36,0,0,0,234,228.22L339.1,211.06a19.28,19.28,0,0,0,34.81-15.52Z" transform="translate(-3.5 -11.37)"/></g></g></svg>