<?xml version="1.0" encoding="utf-8"?>
<!-- Generator: Adobe Illustrator 21.1.0, SVG Export Plug-In . SVG Version: 6.00 Build 0)  -->
<svg version="1.1" id="Capa_1" xmlns="http://www.w3.org/2000/svg" xmlns:xlink="http://www.w3.org/1999/xlink" x="0px" y="0px"
	 viewBox="0 0 80 68" style="enable-background:new 0 0 80 68;" xml:space="preserve">
<style type="text/css">
	.st0{fill:#EC1C27;}
	.st1{fill-rule:evenodd;clip-rule:evenodd;fill:#EC1C27;}
	.st2{fill:#1D1D1B;}
	.st3{fill:#FFFFFF;}
	.st4{fill:#868788;}
	.st5{fill-rule:evenodd;clip-rule:evenodd;fill:#FFFFFF;}
	.st6{fill-rule:evenodd;clip-rule:evenodd;fill:#5C5C5C;}
	.st7{fill:#333333;}
	.st8{fill-rule:evenodd;clip-rule:evenodd;fill:#333333;}
	.st9{fill-rule:evenodd;clip-rule:evenodd;}
</style>
<g>
	<g>
		<path class="st0" d="M792.4-64h38.2c1.4,0,2.5-1.1,2.5-2.5c0-1.4-1.1-2.5-2.5-2.5h-38.2c-1.4,0-2.5,1.1-2.5,2.5
			C789.9-65.1,791-64,792.4-64z"/>
		<path class="st0" d="M792.4-50.7h25.7c-1.4-2-2.5-4.2-2.8-5h-22.9c-1.4,0-2.5,1.1-2.5,2.5C789.9-51.8,791-50.7,792.4-50.7z"/>
		<path class="st0" d="M830.5-42.4h-38.2c-1.4,0-2.5,1.1-2.5,2.5c0,1.4,1.1,2.5,2.5,2.5h38.2c1.4,0,2.5-1.1,2.5-2.5
			C833-41.3,831.9-42.4,830.5-42.4z"/>
	</g>
	<g>
		<path class="st0" d="M831.8-57.9c1.2,0.3,1.3,1.3,1,2c-1,2.1-4.6,8.2-7.4,8.1c-2.8,0-6.3-6.4-7.2-8.5c-0.5-1.2,0.5-1.6,1.4-1.8
			C822.9-58.8,827.2-59,831.8-57.9z"/>
	</g>
</g>
<g>
	<g>
		<path d="M864.4-64h38.2c1.4,0,2.5-1.1,2.5-2.5c0-1.4-1.1-2.5-2.5-2.5h-38.2c-1.4,0-2.5,1.1-2.5,2.5C861.9-65.1,863-64,864.4-64z"
			/>
		<path d="M864.4-50.7h25.7c-1.4-2-2.5-4.2-2.8-5h-22.9c-1.4,0-2.5,1.1-2.5,2.5C861.9-51.8,863-50.7,864.4-50.7z"/>
		<path d="M902.5-42.4h-38.2c-1.4,0-2.5,1.1-2.5,2.5c0,1.4,1.1,2.5,2.5,2.5h38.2c1.4,0,2.5-1.1,2.5-2.5
			C905-41.3,903.9-42.4,902.5-42.4z"/>
	</g>
	<g>
		<path d="M903.8-57.9c1.2,0.3,1.3,1.3,1,2c-1,2.1-4.6,8.2-7.4,8.1c-2.8,0-6.3-6.4-7.2-8.5c-0.5-1.2,0.5-1.6,1.4-1.8
			C894.9-58.8,899.2-59,903.8-57.9z"/>
	</g>
</g>
<path class="st0" d="M955.1-74c-11.8,0-21.5,9.6-21.5,21.5c0,11.8,9.6,21.5,21.5,21.5c11.8,0,21.5-9.6,21.5-21.5
	C976.6-64.3,967-74,955.1-74z M961.5-43.6c1,0.5,1.5,1.4,1.3,2.4c-0.2,1.1-1.2,1.8-2.2,1.8c-0.3,0-0.7-0.1-1-0.2
	c-0.1-0.1-14.6-6.9-14.5-12.9c-0.1-6,14.3-12.8,14.5-12.9c0.3-0.2,0.7-0.2,1-0.2c1.1,0,2,0.8,2.2,1.8c0.2,1-0.3,2-1.3,2.4
	c-4.3,1.9-12,6.6-12,8.9C949.5-50.2,957.3-45.5,961.5-43.6z"/>
<path class="st0" d="M1365.4-61.4c-1-0.5-1.5-1.4-1.3-2.4c0.2-1.1,1.2-1.8,2.2-1.8c0.3,0,0.7,0.1,1,0.2c0.1,0.1,14.6,6.9,14.5,12.9
	c0.1,6-14.3,12.8-14.5,12.9c-0.3,0.2-0.7,0.2-1,0.2c-1.1,0-2-0.8-2.2-1.8c-0.2-1,0.3-2,1.3-2.4c4.3-1.9,12-6.6,12-8.9
	C1377.5-54.7,1369.6-59.5,1365.4-61.4z"/>
<path class="st1" d="M1013.1-73.8c-11.8,0-21.4,9.6-21.4,21.4c0,11.8,9.6,21.4,21.4,21.4c11.8,0,21.4-9.6,21.4-21.4
	C1034.5-64.3,1024.9-73.8,1013.1-73.8z M1021.9-46.6c0.4,0.4,0.6,0.9,0.6,1.4c0,1.1-0.9,2-2,2c-0.6,0-1.1-0.2-1.4-0.6l-5.9-5.9
	l-5.9,5.9c-0.4,0.4-0.9,0.6-1.4,0.6c-1.1,0-2-0.9-2-2c0-0.6,0.2-1.1,0.6-1.4l5.9-5.9l-5.9-5.9c-0.4-0.4-0.6-0.9-0.6-1.4
	c0-1.1,0.9-2,2-2c0.6,0,1.1,0.2,1.4,0.6l5.9,5.9l5.9-5.9c0.4-0.4,0.9-0.6,1.4-0.6c1.1,0,2,0.9,2,2c0,0.6-0.2,1.1-0.6,1.4l-5.9,5.9
	L1021.9-46.6z"/>
<path class="st2" d="M1088.9-40.4c0,3.8-3.1,6.9-6.9,6.9h-25.8c-3.8,0-6.9-3.1-6.9-6.9v-25.8c0-3.8,3.1-6.9,6.9-6.9h25.8
	c3.8,0,6.9,3.1,6.9,6.9V-40.4z"/>
<path id="chart-11" class="st3" d="M1082.9-51.5c-1,7.3-7.7,12.7-15.5,11.7c-6.1-0.8-11-5.7-11.8-11.8c-1-7.8,4.4-14.5,11.7-15.5
	c0.4-0.1,0.8,0.3,0.8,0.7v13.4c0,0.4,0.3,0.7,0.7,0.7h13.4C1082.6-52.2,1082.9-51.9,1082.9-51.5z M1071.1-54.5h11.1
	c0.4,0,0.7-0.4,0.7-0.8c-0.8-6.1-5.6-10.8-11.7-11.7c-0.4-0.1-0.8,0.3-0.8,0.7v11.1C1070.4-54.8,1070.7-54.5,1071.1-54.5z"/>
<path class="st4" d="M1142.9-40.4c0,3.8-3.1,6.9-6.9,6.9h-25.8c-3.8,0-6.9-3.1-6.9-6.9v-25.8c0-3.8,3.1-6.9,6.9-6.9h25.8
	c3.8,0,6.9,3.1,6.9,6.9V-40.4z"/>
<path id="chart-11_1_" class="st3" d="M1136.9-51.5c-1,7.3-7.7,12.7-15.5,11.7c-6.1-0.8-11-5.7-11.8-11.8c-1-7.8,4.4-14.5,11.7-15.5
	c0.4-0.1,0.8,0.3,0.8,0.7v13.4c0,0.4,0.3,0.7,0.7,0.7h13.4C1136.6-52.2,1136.9-51.9,1136.9-51.5z M1125.1-54.5h11.1
	c0.4,0,0.7-0.4,0.7-0.8c-0.8-6.1-5.6-10.8-11.7-11.7c-0.4-0.1-0.8,0.3-0.8,0.7v11.1C1124.4-54.8,1124.7-54.5,1125.1-54.5z"/>
<path class="st2" d="M1170.3-73.1c-3.8,0-6.9,3.1-6.9,6.9v25.8c0,3.8,3.1,6.9,6.9,6.9h25.8c3.8,0,6.9-3.1,6.9-6.9v-25.8
	c0-3.8-3.1-6.9-6.9-6.9H1170.3z"/>
<path class="st5" d="M1168.8-40.1c-0.7,0-1.2-0.5-1.2-1.2v-0.5c0-0.7,0.5-1.2,1.2-1.2h28.8c0.7,0,1.2,0.5,1.2,1.2v0.5
	c0,0.7-0.5,1.2-1.2,1.2H1168.8 M1173.4-44.5c-0.8,0-1.5-0.7-1.5-1.5v-19c0-0.8,0.7-1.5,1.5-1.5h2.9c0.8,0,1.5,0.7,1.5,1.5v19
	c0,0.8-0.7,1.5-1.5,1.5H1173.4 M1181.7-44.5c-0.8,0-1.5-0.7-1.5-1.5v-12.2c0-0.8,0.7-1.5,1.5-1.5h2.9c0.8,0,1.5,0.7,1.5,1.5V-46
	c0,0.8-0.7,1.5-1.5,1.5H1181.7 M1190-44.5c-0.8,0-1.5-0.7-1.5-1.5v-5.4c0-0.8,0.7-1.5,1.5-1.5h2.9c0.8,0,1.5,0.7,1.5,1.5v5.4
	c0,0.8-0.7,1.5-1.5,1.5H1190"/>
<path class="st4" d="M1230.3-73.1c-3.8,0-6.9,3.1-6.9,6.9v25.8c0,3.8,3.1,6.9,6.9,6.9h25.8c3.8,0,6.9-3.1,6.9-6.9v-25.8
	c0-3.8-3.1-6.9-6.9-6.9H1230.3z"/>
<path class="st5" d="M1228.8-40.1c-0.7,0-1.2-0.5-1.2-1.2v-0.5c0-0.7,0.5-1.2,1.2-1.2h28.8c0.7,0,1.2,0.5,1.2,1.2v0.5
	c0,0.7-0.5,1.2-1.2,1.2H1228.8 M1233.4-44.5c-0.8,0-1.5-0.7-1.5-1.5v-19c0-0.8,0.7-1.5,1.5-1.5h2.9c0.8,0,1.5,0.7,1.5,1.5v19
	c0,0.8-0.7,1.5-1.5,1.5H1233.4 M1241.7-44.5c-0.8,0-1.5-0.7-1.5-1.5v-12.2c0-0.8,0.7-1.5,1.5-1.5h2.9c0.8,0,1.5,0.7,1.5,1.5V-46
	c0,0.8-0.7,1.5-1.5,1.5H1241.7 M1250-44.5c-0.8,0-1.5-0.7-1.5-1.5v-5.4c0-0.8,0.7-1.5,1.5-1.5h2.9c0.8,0,1.5,0.7,1.5,1.5v5.4
	c0,0.8-0.7,1.5-1.5,1.5H1250"/>
<path class="st6" d="M1334.1-37.4C1334.1-37.4,1334.1-37.4,1334.1-37.4c0,0.8-0.6,1.4-1.4,1.4h-10.8c0.8-0.2,1.4-0.9,1.4-1.8
	c0,0,0,0,0,0h0c0,0,0-6.6-4.8-8.9c-2.1-1-2.2-0.8-3.2-1.1l0-2.8c0,0-1.1-0.9-1.5-3.5c-0.7,0.2-0.9-0.8-1-1.5c0-0.6-0.4-2.6,0.5-2.4
	c-0.2-1.3-0.3-2.5-0.2-3.1c0.2-2.2,2.3-4.5,5.6-4.7c3.9,0.2,5.4,2.5,5.6,4.7c0.1,0.6-0.1,1.8-0.3,3.1c0.9-0.2,0.5,1.8,0.4,2.4
	c0,0.7-0.3,1.7-1,1.5c-0.4,2.7-1.5,3.5-1.5,3.5l0,2.8c0,0,0.7,0.4,3.7,1.6c3,1.2,2.1,0.3,4.5,1.5
	C1334.1-42.6,1334.1-37.4,1334.1-37.4L1334.1-37.4z M1312.4-47.1c3.3,1.4,2.3,0.3,4.9,1.7c4.2,2.1,4.2,7.9,4.2,7.9h0c0,0,0,0,0,0
	c0,0.9-0.7,1.6-1.6,1.6h-30.8c-0.9,0-1.6-0.7-1.6-1.6c0,0,0,0,0,0h0c0,0,0-5.8,4.2-7.9c2.7-1.3,1.6-0.3,4.9-1.6
	c3.3-1.4,4.1-1.8,4.1-1.8l0-3.1c0,0-1.2-0.9-1.6-3.9c-0.8,0.2-1-0.9-1.1-1.6c0-0.7-0.4-2.9,0.5-2.7c-0.2-1.4-0.3-2.7-0.3-3.4
	c0.2-2.4,2.6-4.9,6.2-5.1c4.2,0.2,5.9,2.7,6.1,5.1c0.1,0.7-0.1,2-0.3,3.4c0.9-0.2,0.5,2,0.5,2.7c0,0.7-0.3,1.8-1.1,1.6
	c-0.4,2.9-1.6,3.9-1.6,3.9l0,3.1C1308.3-48.9,1309.1-48.4,1312.4-47.1"/>
<g>
	<g>
		<g>
			<path class="st7" d="M1440.1-53.7c-1.4-2.1-4.4-7.4-5.7-9.8c-0.4-0.6-1-0.7-1.6,0c-1.9,2.2-6.8,6.5-13.2,5.7
				c-8.2-1-12.6,3.9-13.9,5.7c-0.3,0.4-0.3,1.1-0.1,1.5c0.2,0.4,4.9,9,5.3,9.7c0.4,0.6,1,0.8,1.6,0.1c1.3-1.4,4.4-3.4,11.2-2.9
				c9.3,0.7,14.5-5.2,16.3-7.9C1440.4-52.2,1440.5-52.9,1440.1-53.7z M1427-47.6c0,0.1,0.3,0.5,0.5,0.8c0.1,0.2,0.1,0.4,0,0.4
				c-0.1,0-0.5,0.3-0.8,0.5c-0.1,0-0.2,0.1-0.4-0.2c-0.1-0.1-0.3-0.5-0.4-0.7c-0.1-0.1-0.3-0.1-0.3-0.1c-0.7,0.4-1.5,0.6-2,0.7
				c-0.1,0-0.3-0.1-0.3-0.3c-0.1-0.2-0.3-0.8-0.4-1.1c-0.1-0.2,0.1-0.2,0.2-0.3c0.6-0.1,1.4-0.3,2.1-0.7c0.7-0.4,1-1,0.7-1.5
				c-0.3-0.5-0.9-0.5-2-0.2c-1.6,0.4-2.9,0.4-3.7-0.8c-0.7-1-0.5-2.3,0.5-3.3c0.1-0.1,0.1-0.2,0-0.4c-0.2-0.3-0.5-0.7-0.5-0.8
				c0-0.1-0.1-0.2,0.1-0.3c0.2-0.1,0.7-0.4,0.8-0.5c0.1-0.1,0.3,0,0.4,0.1c0,0,0.3,0.4,0.4,0.7c0.1,0.1,0.3,0.1,0.3,0
				c0.6-0.3,1.1-0.5,1.5-0.6c0.4-0.1,0.4,0.1,0.4,0.3c0,0.1,0.2,0.5,0.3,0.9c0.1,0.2-0.1,0.5-0.3,0.5c-0.4,0.1-1,0.2-1.7,0.6
				c-0.8,0.5-0.8,1-0.6,1.4c0.3,0.4,0.9,0.4,2.2,0.1c1.8-0.4,2.8-0.1,3.6,1c0.7,1,0.6,2.3-0.5,3.4C1427-48,1426.9-47.8,1427-47.6z"
				/>
		</g>
	</g>
	<path class="st7" d="M1424.5-42.1c-8-0.7-11.2,3-12.3,5c-0.4,0.6-0.8,0.6-1,0.2c-0.2-0.4-4.9-9-5.1-9.4c-0.2-0.4-0.4-0.2-0.5-0.1
		c-0.5,0.6-0.8,1.1-0.9,1.3c-0.1,0.2-0.1,0.3,0.2,0.8c1,1.8,4.5,8.2,5.8,10.5c0.4,0.6,1.1,0.9,1.8,0c1.4-2.5,4.9-6.9,12.5-6.2
		c9.7,0.9,13.4-3.7,14.5-5.5c0.1-0.1,0.4-0.5,0.2-0.9c-0.2-0.4-0.4-0.8-0.6-1c-0.1-0.1-0.3-0.2-0.5,0.2
		C1436.4-44.8,1432-41.5,1424.5-42.1z"/>
</g>
<path class="st8" d="M1504.8-63.4c0-0.3-0.1-0.6-0.4-0.9l0,0l-3.8-3.4l0,0c-0.2-0.2-0.5-0.3-0.8-0.3c-0.6,0-1.1,0.5-1.1,1.1
	c0,0.3,0.1,0.6,0.4,0.9l0,0l1.6,1.4h-5.4h-5h-0.1h0h-0.7c-0.5-0.1-1-0.1-1.6-0.1c-6.8,0-12.2,5.5-12.2,12.2c0,4.1,2,7.7,5.1,9.9
	h-5.3l1.6-1.4l0,0c0.2-0.2,0.4-0.5,0.4-0.9c0-0.6-0.5-1.1-1.1-1.1c-0.3,0-0.6,0.1-0.8,0.3l0,0l-3.8,3.4l0,0
	c-0.2,0.2-0.4,0.5-0.4,0.9c0,0.3,0.1,0.6,0.4,0.9l0,0l3.8,3.4l0,0c0.2,0.2,0.5,0.3,0.8,0.3c0.6,0,1.1-0.5,1.1-1.1
	c0-0.3-0.1-0.6-0.4-0.9l0,0l-1.6-1.4h5.4h5h0.1h0h2h0h0h1c0.2,0,0.3,0,0.4-0.1c6.1-0.7,10.8-5.9,10.8-12.2c0-4-2-7.6-5-9.8h5.5
	l-1.6,1.4l0,0c-0.2,0.2-0.4,0.5-0.4,0.8c0,0.6,0.5,1.1,1.1,1.1c0.3,0,0.6-0.1,0.8-0.3l0,0l3.8-3.4l0,0
	C1504.7-62.8,1504.8-63.1,1504.8-63.4z M1489.1-47.3v1.1c0,0.3-0.1,0.4-0.4,0.4h-1.2c-0.3,0-0.4-0.2-0.4-0.4v-1.2
	c-1.6-0.3-3-1.4-3-3.1c0-0.3,0.1-0.4,0.4-0.4h1.5c0.3,0,0.5,0,0.5,0.4c0,0.2,0.1,0.4,0.3,0.6c0.3,0.4,0.9,0.5,1.5,0.5
	c0.8,0,1.5-0.2,1.5-1c0-0.8-1.3-0.9-2.6-1.3c-1.5-0.5-2.9-1.1-2.9-3c0-1.7,1.3-2.6,2.9-2.9v-1.2c0-0.3,0.1-0.4,0.4-0.4h1.2
	c0.3,0,0.4,0.2,0.4,0.4v1.2c1.5,0.3,2.7,1.2,2.7,2.7c0,0.4-0.1,0.4-0.4,0.4h-1.5c-0.3,0-0.3-0.2-0.4-0.4c-0.1-0.2-0.1-0.3-0.3-0.5
	c-0.3-0.3-0.8-0.4-1.3-0.4c-0.5,0-1.3,0.2-1.3,0.9c0,0.9,2.2,1.2,2.8,1.5c1.1,0.3,2.7,0.8,2.7,2.8
	C1492.1-48.6,1490.9-47.6,1489.1-47.3z"/>
<path class="st7" d="M1556.8-69h-19.4c-1.1,0-1.9,0.9-1.9,1.9v25.2c0,1.1,0.9,1.9,1.9,1.9h19.4c1.1,0,1.9-0.9,1.9-1.9V-67
	C1558.7-68.1,1557.8-69,1556.8-69z M1539-62.5h7.4v2.3h-7.4V-62.5z M1555.2-46.7H1539v-2.3h16.2V-46.7z M1555.2-51.2H1539v-2.3h16.2
	V-51.2z M1555.2-55.7H1539V-58h16.2V-55.7z"/>
<path class="st9" d="M814.6,92.7h-79.1c-1.9,0-3.4-1.5-3.4-3.4V88c0-1.9,1.5-3.4,3.4-3.4h79.1c1.9,0,3.4,1.5,3.4,3.4v1.3
	C818,91.2,816.5,92.7,814.6,92.7 M801.9,80.6h-8c-2.2,0-4-1.8-4-4V24.3c0-2.2,1.8-4,4-4h8c2.2,0,4,1.8,4,4v52.3
	C805.9,78.8,804.1,80.6,801.9,80.6 M779.1,80.6h-8c-2.2,0-4-1.8-4-4V43.1c0-2.2,1.8-4,4-4h8c2.2,0,4,1.8,4,4v33.5
	C783.1,78.8,781.3,80.6,779.1,80.6 M756.3,80.6h-8c-2.2,0-4-1.8-4-4V61.8c0-2.2,1.8-4,4-4h8c2.2,0,4,1.8,4,4v14.7
	C760.3,78.8,758.5,80.6,756.3,80.6"/>
<g>
	<rect x="10" y="51.9" width="15.1" height="15.1"/>
	<rect x="29.5" y="51.9" width="15.1" height="15.1"/>
	<rect x="49" y="51.9" width="15.1" height="15.1"/>
	<rect x="10" y="29.7" width="15.1" height="15.1"/>
	<rect x="29.5" y="29.7" width="15.1" height="15.1"/>
	<rect x="49" y="29.7" width="15.1" height="15.1"/>
	<rect x="10" y="7.5" width="15.1" height="15.1"/>
	<rect x="29.5" y="7.5" width="15.1" height="15.1"/>
	<rect x="49" y="1" width="21.6" height="21.6"/>
</g>
<path d="M1016.2,63.1c1-0.7,2-1,3.1-1c2.3,0,4.4,1.4,5.2,3.8c-0.9-0.7-2-1-3.1-1c-1.1,0-2.2,0.4-3.2,1c-1.9,1.4-2.8,3.7-2,5.9
	C1013.3,69.7,1013.2,65.2,1016.2,63.1z M1023.8,91.8c2.4,0.8,9.8,2.8,18.3,9.2l15.8-11.3c-4.1-5.8-3-9.8-7.1-15.5
	c-1.8-2.5-3.4-4.1-6.4-3.6l-0.9,0.2l1.4,2c0.9,1.2-1,2.5-1.8,1.3l-1.3-1.8c-0.5-0.6-1.2-0.9-2-0.8l-2.9,0.7l1.8,2.4
	c0.9,1.2-1,2.5-1.8,1.3l-1.5-2.1c-0.5-0.7-1.3-1-2.1-0.8l-3,0.7l1.8,2.6c0.9,1.2-1,2.5-1.8,1.3l-6.1-8.6c-1-1.4-2.9-1.7-4.3-0.7
	c-1.4,1-1.7,2.9-0.7,4.3l9.7,13.6c-3-1.1-7.5-1.6-8.4,1.5C1020.1,89.6,1021.6,91.1,1023.8,91.8z M1021.3,24H981v18.3h40.3V24z
	 M995.7,57h11v-7.3h-11V57z M992,49.7h-11V57h11V49.7z M992,60.7h-11V68h11V60.7z M981,79h11v-7.3h-11V79z M1006.7,60.7h-11V68h11
	V60.7z M1015.1,82.7h-37.8V20.3h47.7v35.8c5.5,2.7,7.3,9.3,7.3,9.3V13H970v77h43.3C1012.9,87.1,1013.5,84.9,1015.1,82.7z
	 M1010.3,49.7V57h1.9c2.6-1.8,5.8-2.6,9.1-2.1v-5.3H1010.3z M1006.7,71.7h-11V79h11V71.7z"/>
</svg>
