<?xml version="1.0" encoding="utf-8"?>
<!-- Generator: Adobe Illustrator 21.1.0, SVG Export Plug-In . SVG Version: 6.00 Build 0)  -->
<svg version="1.1" id="Layer_1" xmlns="http://www.w3.org/2000/svg" xmlns:xlink="http://www.w3.org/1999/xlink" x="0px" y="0px"
	 viewBox="217 6.7 44 44.1" style="enable-background:new 217 6.7 44 44.1;" xml:space="preserve">
<style type="text/css">
	.st0{fill:#E2131D;}
	.st1{fill:#FFFDFD;}
</style>
<g>
	<path class="st0" d="M239,50.4c11.9,0,21.6-9.7,21.6-21.6S250.9,7.2,239,7.2c-11.9,0-21.6,9.7-21.6,21.6S227.1,50.4,239,50.4z
		 M239,8.9c10.9,0,19.9,8.9,19.9,19.9s-8.9,19.9-19.9,19.9s-19.9-8.9-19.9-19.9S228.1,8.9,239,8.9z"/>
	<path class="st0" d="M229.2,30h8.6v8.6c0,0.5,0.4,0.9,0.9,0.9s0.9-0.4,0.9-0.9V30h9.2c0.5,0,0.9-0.4,0.9-0.9c0-0.5-0.4-0.9-0.9-0.9
		h-9.2V19c0-0.5-0.4-0.9-0.9-0.9s-0.9,0.4-0.9,0.9v9.2h-8.6c-0.5,0-0.9,0.4-0.9,0.9C228.3,29.5,228.7,30,229.2,30z"/>
</g>
<rect x="225.9" y="15.4" class="st1" width="26.2" height="12.8"/>
<rect x="225.9" y="30" class="st1" width="26.2" height="12.8"/>
</svg>
