<?xml version="1.0" encoding="utf-8"?>
<!-- Generator: Adobe Illustrator 21.1.0, SVG Export Plug-In . SVG Version: 6.00 Build 0)  -->
<svg version="1.1" id="Capa_1" xmlns="http://www.w3.org/2000/svg" xmlns:xlink="http://www.w3.org/1999/xlink" x="0px" y="0px"
	 viewBox="0 0 1366 768" style="enable-background:new 0 0 1366 768;" xml:space="preserve">
<style type="text/css">
	.st0{fill:#EC1C27;}
	.st1{fill-rule:evenodd;clip-rule:evenodd;fill:#5C5C5C;}
	.st2{fill:#333333;}
	.st3{fill-rule:evenodd;clip-rule:evenodd;fill:#333333;}
	.st4{fill-rule:evenodd;clip-rule:evenodd;}
</style>
<path class="st0" d="M889.4,73.6c-1-0.5-1.5-1.4-1.3-2.4c0.2-1.1,1.2-1.8,2.2-1.8c0.3,0,0.7,0.1,1,0.2c0.1,0.1,14.6,6.9,14.5,12.9
	c0.1,6-14.3,12.8-14.5,12.9c-0.3,0.2-0.7,0.2-1,0.2c-1.1,0-2-0.8-2.2-1.8c-0.2-1,0.3-2,1.3-2.4c4.3-1.9,12-6.6,12-8.9
	C901.5,80.3,893.6,75.5,889.4,73.6z"/>
<path class="st1" d="M858.1,97.6C858.1,97.6,858.1,97.6,858.1,97.6c0,0.8-0.6,1.4-1.4,1.4h-10.8c0.8-0.2,1.4-0.9,1.4-1.8
	c0,0,0,0,0,0h0c0,0,0-6.6-4.8-8.9c-2.1-1-2.2-0.8-3.2-1.1l0-2.8c0,0-1.1-0.9-1.5-3.5c-0.7,0.2-0.9-0.8-1-1.5c0-0.6-0.4-2.6,0.5-2.4
	c-0.2-1.3-0.3-2.5-0.2-3.1c0.2-2.2,2.3-4.5,5.6-4.7c3.9,0.2,5.4,2.5,5.6,4.7c0.1,0.6-0.1,1.8-0.3,3.1c0.9-0.2,0.5,1.8,0.4,2.4
	c0,0.7-0.3,1.7-1,1.5c-0.4,2.7-1.5,3.5-1.5,3.5l0,2.8c0,0,0.7,0.4,3.7,1.6c3,1.2,2.1,0.3,4.5,1.5C858.1,92.4,858.1,97.6,858.1,97.6
	L858.1,97.6z M836.4,87.9c3.3,1.4,2.3,0.3,4.9,1.7c4.2,2.1,4.2,7.9,4.2,7.9h0c0,0,0,0,0,0c0,0.9-0.7,1.6-1.6,1.6h-30.8
	c-0.9,0-1.6-0.7-1.6-1.6c0,0,0,0,0,0h0c0,0,0-5.8,4.2-7.9c2.7-1.3,1.6-0.3,4.9-1.6c3.3-1.4,4.1-1.8,4.1-1.8l0-3.1
	c0,0-1.2-0.9-1.6-3.9c-0.8,0.2-1-0.9-1.1-1.6c0-0.7-0.4-2.9,0.5-2.7c-0.2-1.4-0.3-2.7-0.3-3.4c0.2-2.4,2.6-4.9,6.2-5.1
	c4.2,0.2,5.9,2.7,6.1,5.1c0.1,0.7-0.1,2-0.3,3.4c0.9-0.2,0.5,2,0.5,2.7c0,0.7-0.3,1.8-1.1,1.6c-0.4,2.9-1.6,3.9-1.6,3.9l0,3.1
	C832.3,86.1,833.1,86.6,836.4,87.9"/>
<g>
	<g>
		<g>
			<path class="st2" d="M-534.5,166.9c-2.6-4-8.4-14.3-11-18.8c-0.7-1.2-1.8-1.4-3.1,0c-3.7,4.1-13,12.6-25.4,11
				c-15.7-2-24.2,7.4-26.8,11c-0.6,0.8-0.5,2.1-0.1,2.8c0.4,0.7,9.4,17.4,10.1,18.6c0.7,1.2,1.8,1.6,3.1,0.2
				c2.6-2.7,8.5-6.6,21.5-5.6c18,1.4,27.9-10.1,31.3-15.2C-533.9,169.8-533.7,168.5-534.5,166.9z M-559.6,178.7
				c0.1,0.1,0.6,0.9,0.9,1.4c0.2,0.3,0.1,0.7-0.1,0.8c-0.1,0.1-1,0.6-1.5,1c-0.1,0.1-0.4,0.2-0.7-0.3c-0.1-0.2-0.6-0.9-0.8-1.3
				c-0.2-0.2-0.5-0.3-0.6-0.2c-1.4,0.7-2.8,1.2-3.9,1.3c-0.2,0-0.5-0.1-0.6-0.5c-0.1-0.3-0.5-1.6-0.7-2.2c-0.1-0.3,0.2-0.5,0.4-0.5
				c1.2-0.2,2.7-0.6,4-1.4c1.4-0.9,2-2,1.4-2.9c-0.6-0.9-1.7-1-3.9-0.4c-3.1,0.8-5.6,0.7-7.1-1.6c-1.3-2-1-4.4,1-6.4
				c0.1-0.1,0.2-0.5,0.1-0.7c-0.3-0.5-0.9-1.4-1-1.5c-0.1-0.1-0.2-0.4,0.1-0.6c0.3-0.2,1.3-0.8,1.5-1c0.2-0.1,0.5-0.1,0.7,0.2
				c0,0.1,0.6,0.9,0.9,1.3c0.1,0.2,0.5,0.2,0.6,0.1c1.1-0.6,2.1-0.9,2.9-1.1c0.7-0.2,0.7,0.2,0.8,0.5c0.1,0.2,0.4,1,0.6,1.7
				c0.1,0.5-0.2,0.9-0.5,0.9c-0.8,0.1-2,0.4-3.2,1.2c-1.5,1-1.6,2-1.2,2.6c0.5,0.8,1.7,0.7,4.2,0.2c3.5-0.8,5.5-0.2,6.9,1.9
				c1.3,2,1.1,4.5-1,6.6C-559.6,178-559.8,178.3-559.6,178.7z"/>
		</g>
	</g>
	<path class="st2" d="M-564.4,189.2c-15.5-1.4-21.6,5.8-23.7,9.5c-0.7,1.2-1.5,1.1-1.9,0.3c-0.4-0.8-9.4-17.4-9.8-18.1
		c-0.4-0.7-0.7-0.4-0.9-0.2c-1,1.2-1.5,2-1.8,2.6c-0.2,0.4-0.2,0.5,0.3,1.4c1.9,3.5,8.6,15.7,11.1,20.2c0.7,1.2,2.2,1.8,3.4,0
		c2.7-4.9,9.4-13.2,24.1-11.9c18.7,1.7,25.9-7.2,27.9-10.5c0.1-0.2,0.8-1,0.4-1.8c-0.5-0.8-0.9-1.5-1.2-2c-0.2-0.2-0.5-0.3-1,0.3
		C-541.6,184.1-550,190.5-564.4,189.2z"/>
</g>
<path class="st3" d="M-409.7,148.2c0-0.7-0.3-1.2-0.7-1.6l0,0l-7.4-6.6l0,0c-0.4-0.3-0.9-0.6-1.5-0.6c-1.2,0-2.2,1-2.2,2.2
	c0,0.7,0.3,1.2,0.7,1.6l0,0l3.1,2.8h-10.5h-9.6h-0.1h0h-1.4c-1-0.1-2-0.2-3-0.2c-13,0-23.6,10.6-23.6,23.6c0,7.9,3.9,14.9,9.8,19.2
	h-10.3l3.1-2.8l0,0c0.4-0.4,0.7-1,0.7-1.6c0-1.2-1-2.2-2.2-2.2c-0.6,0-1.1,0.2-1.5,0.6l0,0l-7.4,6.6l0,0c-0.4,0.4-0.7,1-0.7,1.6
	c0,0.7,0.3,1.2,0.7,1.6l0,0l7.4,6.6l0,0c0.4,0.3,0.9,0.6,1.5,0.6c1.2,0,2.2-1,2.2-2.2c0-0.7-0.3-1.2-0.7-1.6l0,0l-3.1-2.8h10.4h9.6
	h0.1h0h3.8h0h0h1.9c0.3,0,0.6-0.1,0.8-0.2c11.7-1.4,20.8-11.3,20.8-23.4c0-7.8-3.8-14.7-9.6-19h10.6l-3.1,2.8l0,0
	c-0.4,0.4-0.7,1-0.7,1.6c0,1.2,1,2.2,2.2,2.2c0.6,0,1.1-0.2,1.5-0.6l0,0l7.4-6.6l0,0C-410,149.5-409.7,148.9-409.7,148.2z
	 M-440,179.3v2.2c0,0.5-0.2,0.8-0.8,0.8h-2.3c-0.7,0-0.8-0.3-0.8-0.8v-2.3c-3-0.6-5.8-2.6-5.8-5.9c0-0.7,0.2-0.8,0.8-0.8h2.8
	c0.7,0,1,0.1,1,0.8c0,0.4,0.2,0.8,0.5,1.2c0.6,0.7,1.8,1,2.8,1c1.6,0,2.8-0.3,2.8-2c0-1.6-2.6-1.6-5-2.4c-2.9-0.9-5.6-2.1-5.6-5.8
	c0-3.2,2.5-5,5.5-5.6v-2.2c0-0.5,0.2-0.8,0.8-0.8h2.3c0.7,0,0.8,0.3,0.8,0.8v2.3c2.8,0.6,5.3,2.3,5.3,5.2c0,0.7-0.2,0.8-0.8,0.8
	h-2.8c-0.6,0-0.6-0.4-0.8-0.8c-0.1-0.3-0.3-0.5-0.6-0.9c-0.5-0.5-1.6-0.8-2.5-0.8c-1,0-2.5,0.4-2.5,1.7c0,1.8,4.3,2.4,5.4,2.9
	c2.1,0.6,5.1,1.5,5.1,5.4C-434.3,176.8-436.6,178.8-440,179.3z"/>
<path class="st2" d="M-309.7,137.5h-37.4c-2.1,0-3.7,1.7-3.7,3.7v48.6c0,2.1,1.7,3.7,3.7,3.7h37.4c2.1,0,3.7-1.7,3.7-3.7v-48.6
	C-306,139.2-307.7,137.5-309.7,137.5z M-344,150h14.3v4.4H-344V150z M-312.9,180.5H-344v-4.4h31.2V180.5z M-312.9,171.8H-344v-4.4
	h31.2V171.8z M-312.9,163.1H-344v-4.4h31.2V163.1z"/>
<path class="st4" d="M338.6,227.7h-79.1c-1.9,0-3.4-1.5-3.4-3.4V223c0-1.9,1.5-3.4,3.4-3.4h79.1c1.9,0,3.4,1.5,3.4,3.4v1.3
	C342,226.2,340.5,227.7,338.6,227.7 M325.9,215.6h-8c-2.2,0-4-1.8-4-4v-52.3c0-2.2,1.8-4,4-4h8c2.2,0,4,1.8,4,4v52.3
	C329.9,213.8,328.1,215.6,325.9,215.6 M303.1,215.6h-8c-2.2,0-4-1.8-4-4v-33.5c0-2.2,1.8-4,4-4h8c2.2,0,4,1.8,4,4v33.5
	C307.1,213.8,305.3,215.6,303.1,215.6 M280.3,215.6h-8c-2.2,0-4-1.8-4-4v-14.7c0-2.2,1.8-4,4-4h8c2.2,0,4,1.8,4,4v14.7
	C284.3,213.8,282.5,215.6,280.3,215.6"/>
</svg>
