<?xml version="1.0" encoding="utf-8"?>
<!-- Generator: Adobe Illustrator 21.1.0, SVG Export Plug-In . SVG Version: 6.00 Build 0)  -->
<svg version="1.1" id="Capa_1" xmlns="http://www.w3.org/2000/svg" xmlns:xlink="http://www.w3.org/1999/xlink" x="0px" y="0px"
	 viewBox="0 0 68 67" style="enable-background:new 0 0 68 67;" xml:space="preserve">
<style type="text/css">
	.st0{fill:#EC1C27;}
	.st1{fill:#868788;}
	.st2{fill:#FFFFFF;}
	.st3{fill:#1D1D1B;}
	.st4{fill-rule:evenodd;clip-rule:evenodd;fill:#FFFFFF;}
	.st5{fill-rule:evenodd;clip-rule:evenodd;fill:#5C5C5C;}
	.st6{fill:#333333;}
	.st7{fill-rule:evenodd;clip-rule:evenodd;fill:#333333;}
	.st8{fill-rule:evenodd;clip-rule:evenodd;}
</style>
<path class="st0" d="M1365.4-62.4c-1-0.5-1.5-1.4-1.3-2.4c0.2-1.1,1.2-1.8,2.2-1.8c0.3,0,0.7,0.1,1,0.2c0.1,0.1,14.6,6.9,14.5,12.9
	c0.1,6-14.3,12.8-14.5,12.9c-0.3,0.2-0.7,0.2-1,0.2c-1.1,0-2-0.8-2.2-1.8c-0.2-1,0.3-2,1.3-2.4c4.3-1.9,12-6.6,12-8.9
	C1377.5-55.7,1369.6-60.5,1365.4-62.4z"/>
<path class="st1" d="M65.9,54.4c0,6.1-4.9,11-11,11H13.5c-6.1,0-11-4.9-11-11V13c0-6.1,4.9-11,11-11h41.3c6.1,0,11,4.9,11,11V54.4z"
	/>
<path id="chart-11" class="st2" d="M56.1,36.7c-1.6,11.7-12.4,20.4-24.8,18.8c-9.7-1.3-17.6-9.2-18.9-18.9
	c-1.6-12.4,7.1-23.2,18.8-24.8c0.7-0.1,1.2,0.4,1.2,1.1v21.5c0,0.6,0.5,1.1,1.1,1.1H55C55.7,35.4,56.2,36,56.1,36.7z M37.2,31.7H55
	c0.7,0,1.2-0.6,1.1-1.2c-1.4-9.7-9-17.4-18.8-18.8c-0.7-0.1-1.2,0.4-1.2,1.1v17.8C36.1,31.2,36.6,31.7,37.2,31.7z"/>
<path class="st1" d="M179.9,51.6c0,3.8-3.1,6.9-6.9,6.9h-25.8c-3.8,0-6.9-3.1-6.9-6.9V25.8c0-3.8,3.1-6.9,6.9-6.9h25.8
	c3.8,0,6.9,3.1,6.9,6.9V51.6z"/>
<path id="chart-11_1_" class="st2" d="M173.9,40.5c-1,7.3-7.7,12.7-15.5,11.7c-6.1-0.8-11-5.7-11.8-11.8c-1-7.8,4.4-14.5,11.7-15.5
	c0.4-0.1,0.8,0.3,0.8,0.7v13.4c0,0.4,0.3,0.7,0.7,0.7h13.4C173.6,39.8,173.9,40.1,173.9,40.5z M162.1,37.5h11.1
	c0.4,0,0.7-0.4,0.7-0.8c-0.8-6.1-5.6-10.8-11.7-11.7c-0.4-0.1-0.8,0.3-0.8,0.7v11.1C161.4,37.2,161.7,37.5,162.1,37.5z"/>
<path class="st3" d="M207.3,18.9c-3.8,0-6.9,3.1-6.9,6.9v25.8c0,3.8,3.1,6.9,6.9,6.9h25.8c3.8,0,6.9-3.1,6.9-6.9V25.8
	c0-3.8-3.1-6.9-6.9-6.9H207.3z"/>
<path class="st4" d="M205.8,51.9c-0.7,0-1.2-0.5-1.2-1.2v-0.5c0-0.7,0.5-1.2,1.2-1.2h28.8c0.7,0,1.2,0.5,1.2,1.2v0.5
	c0,0.7-0.5,1.2-1.2,1.2H205.8 M210.4,47.5c-0.8,0-1.5-0.7-1.5-1.5V27c0-0.8,0.7-1.5,1.5-1.5h2.9c0.8,0,1.5,0.7,1.5,1.5v19
	c0,0.8-0.7,1.5-1.5,1.5H210.4 M218.7,47.5c-0.8,0-1.5-0.7-1.5-1.5V33.8c0-0.8,0.7-1.5,1.5-1.5h2.9c0.8,0,1.5,0.7,1.5,1.5V46
	c0,0.8-0.7,1.5-1.5,1.5H218.7 M227,47.5c-0.8,0-1.5-0.7-1.5-1.5v-5.4c0-0.8,0.7-1.5,1.5-1.5h2.9c0.8,0,1.5,0.7,1.5,1.5V46
	c0,0.8-0.7,1.5-1.5,1.5H227"/>
<path class="st1" d="M267.3,18.9c-3.8,0-6.9,3.1-6.9,6.9v25.8c0,3.8,3.1,6.9,6.9,6.9h25.8c3.8,0,6.9-3.1,6.9-6.9V25.8
	c0-3.8-3.1-6.9-6.9-6.9H267.3z"/>
<path class="st4" d="M265.8,51.9c-0.7,0-1.2-0.5-1.2-1.2v-0.5c0-0.7,0.5-1.2,1.2-1.2h28.8c0.7,0,1.2,0.5,1.2,1.2v0.5
	c0,0.7-0.5,1.2-1.2,1.2H265.8 M270.4,47.5c-0.8,0-1.5-0.7-1.5-1.5V27c0-0.8,0.7-1.5,1.5-1.5h2.9c0.8,0,1.5,0.7,1.5,1.5v19
	c0,0.8-0.7,1.5-1.5,1.5H270.4 M278.7,47.5c-0.8,0-1.5-0.7-1.5-1.5V33.8c0-0.8,0.7-1.5,1.5-1.5h2.9c0.8,0,1.5,0.7,1.5,1.5V46
	c0,0.8-0.7,1.5-1.5,1.5H278.7 M287,47.5c-0.8,0-1.5-0.7-1.5-1.5v-5.4c0-0.8,0.7-1.5,1.5-1.5h2.9c0.8,0,1.5,0.7,1.5,1.5V46
	c0,0.8-0.7,1.5-1.5,1.5H287"/>
<path class="st5" d="M1334.1-38.4C1334.1-38.4,1334.1-38.4,1334.1-38.4c0,0.8-0.6,1.4-1.4,1.4h-10.8c0.8-0.2,1.4-0.9,1.4-1.8
	c0,0,0,0,0,0h0c0,0,0-6.6-4.8-8.9c-2.1-1-2.2-0.8-3.2-1.1l0-2.8c0,0-1.1-0.9-1.5-3.5c-0.7,0.2-0.9-0.8-1-1.5c0-0.6-0.4-2.6,0.5-2.4
	c-0.2-1.3-0.3-2.5-0.2-3.1c0.2-2.2,2.3-4.5,5.6-4.7c3.9,0.2,5.4,2.5,5.6,4.7c0.1,0.6-0.1,1.8-0.3,3.1c0.9-0.2,0.5,1.8,0.4,2.4
	c0,0.7-0.3,1.7-1,1.5c-0.4,2.7-1.5,3.5-1.5,3.5l0,2.8c0,0,0.7,0.4,3.7,1.6c3,1.2,2.1,0.3,4.5,1.5
	C1334.1-43.6,1334.1-38.4,1334.1-38.4L1334.1-38.4z M1312.4-48.1c3.3,1.4,2.3,0.3,4.9,1.7c4.2,2.1,4.2,7.9,4.2,7.9h0c0,0,0,0,0,0
	c0,0.9-0.7,1.6-1.6,1.6h-30.8c-0.9,0-1.6-0.7-1.6-1.6c0,0,0,0,0,0h0c0,0,0-5.8,4.2-7.9c2.7-1.3,1.6-0.3,4.9-1.6
	c3.3-1.4,4.1-1.8,4.1-1.8l0-3.1c0,0-1.2-0.9-1.6-3.9c-0.8,0.2-1-0.9-1.1-1.6c0-0.7-0.4-2.9,0.5-2.7c-0.2-1.4-0.3-2.7-0.3-3.4
	c0.2-2.4,2.6-4.9,6.2-5.1c4.2,0.2,5.9,2.7,6.1,5.1c0.1,0.7-0.1,2-0.3,3.4c0.9-0.2,0.5,2,0.5,2.7c0,0.7-0.3,1.8-1.1,1.6
	c-0.4,2.9-1.6,3.9-1.6,3.9l0,3.1C1308.3-49.9,1309.1-49.4,1312.4-48.1"/>
<g>
	<g>
		<g>
			<path class="st6" d="M1440.1-54.7c-1.4-2.1-4.4-7.4-5.7-9.8c-0.4-0.6-1-0.7-1.6,0c-1.9,2.2-6.8,6.5-13.2,5.7
				c-8.2-1-12.6,3.9-13.9,5.7c-0.3,0.4-0.3,1.1-0.1,1.5c0.2,0.4,4.9,9,5.3,9.7c0.4,0.6,1,0.8,1.6,0.1c1.3-1.4,4.4-3.4,11.2-2.9
				c9.3,0.7,14.5-5.2,16.3-7.9C1440.4-53.2,1440.5-53.9,1440.1-54.7z M1427-48.6c0,0.1,0.3,0.5,0.5,0.8c0.1,0.2,0.1,0.4,0,0.4
				c-0.1,0-0.5,0.3-0.8,0.5c-0.1,0-0.2,0.1-0.4-0.2c-0.1-0.1-0.3-0.5-0.4-0.7c-0.1-0.1-0.3-0.1-0.3-0.1c-0.7,0.4-1.5,0.6-2,0.7
				c-0.1,0-0.3-0.1-0.3-0.3c-0.1-0.2-0.3-0.8-0.4-1.1c-0.1-0.2,0.1-0.2,0.2-0.3c0.6-0.1,1.4-0.3,2.1-0.7c0.7-0.4,1-1,0.7-1.5
				c-0.3-0.5-0.9-0.5-2-0.2c-1.6,0.4-2.9,0.4-3.7-0.8c-0.7-1-0.5-2.3,0.5-3.3c0.1-0.1,0.1-0.2,0-0.4c-0.2-0.3-0.5-0.7-0.5-0.8
				c0-0.1-0.1-0.2,0.1-0.3c0.2-0.1,0.7-0.4,0.8-0.5c0.1-0.1,0.3,0,0.4,0.1c0,0,0.3,0.4,0.4,0.7c0.1,0.1,0.3,0.1,0.3,0
				c0.6-0.3,1.1-0.5,1.5-0.6c0.4-0.1,0.4,0.1,0.4,0.3c0,0.1,0.2,0.5,0.3,0.9c0.1,0.2-0.1,0.5-0.3,0.5c-0.4,0.1-1,0.2-1.7,0.6
				c-0.8,0.5-0.8,1-0.6,1.4c0.3,0.4,0.9,0.4,2.2,0.1c1.8-0.4,2.8-0.1,3.6,1c0.7,1,0.6,2.3-0.5,3.4C1427-49,1426.9-48.8,1427-48.6z"
				/>
		</g>
	</g>
	<path class="st6" d="M1424.5-43.1c-8-0.7-11.2,3-12.3,5c-0.4,0.6-0.8,0.6-1,0.2c-0.2-0.4-4.9-9-5.1-9.4c-0.2-0.4-0.4-0.2-0.5-0.1
		c-0.5,0.6-0.8,1.1-0.9,1.3c-0.1,0.2-0.1,0.3,0.2,0.8c1,1.8,4.5,8.2,5.8,10.5c0.4,0.6,1.1,0.9,1.8,0c1.4-2.5,4.9-6.9,12.5-6.2
		c9.7,0.9,13.4-3.7,14.5-5.5c0.1-0.1,0.4-0.5,0.2-0.9c-0.2-0.4-0.4-0.8-0.6-1c-0.1-0.1-0.3-0.2-0.5,0.2
		C1436.4-45.8,1432-42.5,1424.5-43.1z"/>
</g>
<path class="st7" d="M1504.8-64.4c0-0.3-0.1-0.6-0.4-0.9l0,0l-3.8-3.4l0,0c-0.2-0.2-0.5-0.3-0.8-0.3c-0.6,0-1.1,0.5-1.1,1.1
	c0,0.3,0.1,0.6,0.4,0.9l0,0l1.6,1.4h-5.4h-5h-0.1h0h-0.7c-0.5-0.1-1-0.1-1.6-0.1c-6.8,0-12.2,5.5-12.2,12.2c0,4.1,2,7.7,5.1,9.9
	h-5.3l1.6-1.4l0,0c0.2-0.2,0.4-0.5,0.4-0.9c0-0.6-0.5-1.1-1.1-1.1c-0.3,0-0.6,0.1-0.8,0.3l0,0l-3.8,3.4l0,0
	c-0.2,0.2-0.4,0.5-0.4,0.9c0,0.3,0.1,0.6,0.4,0.9l0,0l3.8,3.4l0,0c0.2,0.2,0.5,0.3,0.8,0.3c0.6,0,1.1-0.5,1.1-1.1
	c0-0.3-0.1-0.6-0.4-0.9l0,0l-1.6-1.4h5.4h5h0.1h0h2h0h0h1c0.2,0,0.3,0,0.4-0.1c6.1-0.7,10.8-5.9,10.8-12.2c0-4-2-7.6-5-9.8h5.5
	l-1.6,1.4l0,0c-0.2,0.2-0.4,0.5-0.4,0.8c0,0.6,0.5,1.1,1.1,1.1c0.3,0,0.6-0.1,0.8-0.3l0,0l3.8-3.4l0,0
	C1504.7-63.8,1504.8-64.1,1504.8-64.4z M1489.1-48.3v1.1c0,0.3-0.1,0.4-0.4,0.4h-1.2c-0.3,0-0.4-0.2-0.4-0.4v-1.2
	c-1.6-0.3-3-1.4-3-3.1c0-0.3,0.1-0.4,0.4-0.4h1.5c0.3,0,0.5,0,0.5,0.4c0,0.2,0.1,0.4,0.3,0.6c0.3,0.4,0.9,0.5,1.5,0.5
	c0.8,0,1.5-0.2,1.5-1c0-0.8-1.3-0.9-2.6-1.3c-1.5-0.5-2.9-1.1-2.9-3c0-1.7,1.3-2.6,2.9-2.9v-1.2c0-0.3,0.1-0.4,0.4-0.4h1.2
	c0.3,0,0.4,0.2,0.4,0.4v1.2c1.5,0.3,2.7,1.2,2.7,2.7c0,0.4-0.1,0.4-0.4,0.4h-1.5c-0.3,0-0.3-0.2-0.4-0.4c-0.1-0.2-0.1-0.3-0.3-0.5
	c-0.3-0.3-0.8-0.4-1.3-0.4c-0.5,0-1.3,0.2-1.3,0.9c0,0.9,2.2,1.2,2.8,1.5c1.1,0.3,2.7,0.8,2.7,2.8
	C1492.1-49.6,1490.9-48.6,1489.1-48.3z"/>
<path class="st6" d="M1556.8-70h-19.4c-1.1,0-1.9,0.9-1.9,1.9v25.2c0,1.1,0.9,1.9,1.9,1.9h19.4c1.1,0,1.9-0.9,1.9-1.9V-68
	C1558.7-69.1,1557.8-70,1556.8-70z M1539-63.5h7.4v2.3h-7.4V-63.5z M1555.2-47.7H1539v-2.3h16.2V-47.7z M1555.2-52.2H1539v-2.3h16.2
	V-52.2z M1555.2-56.7H1539V-59h16.2V-56.7z"/>
<path class="st8" d="M814.6,91.7h-79.1c-1.9,0-3.4-1.5-3.4-3.4V87c0-1.9,1.5-3.4,3.4-3.4h79.1c1.9,0,3.4,1.5,3.4,3.4v1.3
	C818,90.2,816.5,91.7,814.6,91.7 M801.9,79.6h-8c-2.2,0-4-1.8-4-4V23.3c0-2.2,1.8-4,4-4h8c2.2,0,4,1.8,4,4v52.3
	C805.9,77.8,804.1,79.6,801.9,79.6 M779.1,79.6h-8c-2.2,0-4-1.8-4-4V42.1c0-2.2,1.8-4,4-4h8c2.2,0,4,1.8,4,4v33.5
	C783.1,77.8,781.3,79.6,779.1,79.6 M756.3,79.6h-8c-2.2,0-4-1.8-4-4V60.8c0-2.2,1.8-4,4-4h8c2.2,0,4,1.8,4,4v14.7
	C760.3,77.8,758.5,79.6,756.3,79.6"/>
</svg>
