<?xml version="1.0" encoding="utf-8"?>
<!-- Generator: Adobe Illustrator 21.1.0, SVG Export Plug-In . SVG Version: 6.00 Build 0)  -->
<svg version="1.1" id="Capa_1" xmlns="http://www.w3.org/2000/svg" xmlns:xlink="http://www.w3.org/1999/xlink" x="0px" y="0px"
	 viewBox="0 0 68 67" style="enable-background:new 0 0 68 67;" xml:space="preserve">
<style type="text/css">
	.st0{fill:#EC1C27;}
	.st1{fill-rule:evenodd;clip-rule:evenodd;fill:#5C5C5C;}
	.st2{fill:#333333;}
	.st3{fill-rule:evenodd;clip-rule:evenodd;fill:#333333;}
	.st4{fill-rule:evenodd;clip-rule:evenodd;}
</style>
<path class="st0" d="M1365.4-62.4c-1-0.5-1.5-1.4-1.3-2.4c0.2-1.1,1.2-1.8,2.2-1.8c0.3,0,0.7,0.1,1,0.2c0.1,0.1,14.6,6.9,14.5,12.9
	c0.1,6-14.3,12.8-14.5,12.9c-0.3,0.2-0.7,0.2-1,0.2c-1.1,0-2-0.8-2.2-1.8c-0.2-1,0.3-2,1.3-2.4c4.3-1.9,12-6.6,12-8.9
	C1377.5-55.7,1369.6-60.5,1365.4-62.4z"/>
<path class="st1" d="M1334.1-38.4C1334.1-38.4,1334.1-38.4,1334.1-38.4c0,0.8-0.6,1.4-1.4,1.4h-10.8c0.8-0.2,1.4-0.9,1.4-1.8
	c0,0,0,0,0,0h0c0,0,0-6.6-4.8-8.9c-2.1-1-2.2-0.8-3.2-1.1l0-2.8c0,0-1.1-0.9-1.5-3.5c-0.7,0.2-0.9-0.8-1-1.5c0-0.6-0.4-2.6,0.5-2.4
	c-0.2-1.3-0.3-2.5-0.2-3.1c0.2-2.2,2.3-4.5,5.6-4.7c3.9,0.2,5.4,2.5,5.6,4.7c0.1,0.6-0.1,1.8-0.3,3.1c0.9-0.2,0.5,1.8,0.4,2.4
	c0,0.7-0.3,1.7-1,1.5c-0.4,2.7-1.5,3.5-1.5,3.5l0,2.8c0,0,0.7,0.4,3.7,1.6c3,1.2,2.1,0.3,4.5,1.5
	C1334.1-43.6,1334.1-38.4,1334.1-38.4L1334.1-38.4z M1312.4-48.1c3.3,1.4,2.3,0.3,4.9,1.7c4.2,2.1,4.2,7.9,4.2,7.9h0c0,0,0,0,0,0
	c0,0.9-0.7,1.6-1.6,1.6h-30.8c-0.9,0-1.6-0.7-1.6-1.6c0,0,0,0,0,0h0c0,0,0-5.8,4.2-7.9c2.7-1.3,1.6-0.3,4.9-1.6
	c3.3-1.4,4.1-1.8,4.1-1.8l0-3.1c0,0-1.2-0.9-1.6-3.9c-0.8,0.2-1-0.9-1.1-1.6c0-0.7-0.4-2.9,0.5-2.7c-0.2-1.4-0.3-2.7-0.3-3.4
	c0.2-2.4,2.6-4.9,6.2-5.1c4.2,0.2,5.9,2.7,6.1,5.1c0.1,0.7-0.1,2-0.3,3.4c0.9-0.2,0.5,2,0.5,2.7c0,0.7-0.3,1.8-1.1,1.6
	c-0.4,2.9-1.6,3.9-1.6,3.9l0,3.1C1308.3-49.9,1309.1-49.4,1312.4-48.1"/>
<g>
	<g>
		<g>
			<path class="st2" d="M64.3,24.8c-2.4-3.7-7.6-12.9-10-17c-0.7-1.1-1.7-1.3-2.8,0c-3.4,3.7-11.8,11.4-22.9,10
				c-14.2-1.8-21.9,6.7-24.3,10c-0.6,0.8-0.5,1.9-0.1,2.6c0.4,0.7,8.5,15.7,9.2,16.8c0.6,1.1,1.7,1.4,2.8,0.2c2.3-2.5,7.7-6,19.5-5
				c16.3,1.3,25.2-9.1,28.3-13.7C64.8,27.4,65,26.3,64.3,24.8z M41.6,35.5c0.1,0.1,0.5,0.8,0.8,1.3c0.2,0.3,0.1,0.7-0.1,0.8
				c-0.1,0.1-0.9,0.6-1.4,0.9c-0.1,0.1-0.4,0.2-0.7-0.3c-0.1-0.2-0.5-0.8-0.8-1.2c-0.1-0.2-0.4-0.3-0.5-0.2
				c-1.2,0.7-2.5,1.1-3.5,1.2c-0.1,0-0.4-0.1-0.6-0.5c-0.1-0.3-0.5-1.4-0.7-2c-0.1-0.3,0.2-0.4,0.4-0.4c1.1-0.1,2.5-0.5,3.7-1.3
				c1.2-0.8,1.8-1.8,1.2-2.6C39,30.4,38,30.3,36,30.8c-2.8,0.7-5.1,0.6-6.4-1.4c-1.2-1.8-0.9-4,0.9-5.8c0.1-0.1,0.2-0.4,0.1-0.6
				c-0.3-0.5-0.8-1.3-0.9-1.4c-0.1-0.1-0.1-0.4,0.1-0.6c0.3-0.2,1.2-0.7,1.4-0.9c0.2-0.1,0.5-0.1,0.6,0.2c0,0.1,0.5,0.8,0.8,1.2
				c0.1,0.2,0.4,0.1,0.6,0.1c1-0.6,1.9-0.8,2.6-1c0.7-0.1,0.7,0.2,0.8,0.4c0.1,0.2,0.3,0.9,0.5,1.5c0.1,0.4-0.2,0.8-0.4,0.8
				c-0.7,0.1-1.8,0.4-2.9,1.1c-1.4,0.9-1.4,1.8-1.1,2.4c0.4,0.7,1.5,0.7,3.8,0.2c3.2-0.7,4.9-0.2,6.2,1.7c1.2,1.8,1,4-0.9,6
				C41.6,34.9,41.4,35.2,41.6,35.5z"/>
		</g>
	</g>
	<path class="st2" d="M37.2,45c-14-1.2-19.5,5.3-21.4,8.6c-0.6,1.1-1.3,1-1.7,0.3c-0.4-0.7-8.5-15.7-8.9-16.4
		c-0.3-0.7-0.7-0.4-0.8-0.2c-0.9,1-1.4,1.9-1.6,2.3C2.7,40,2.7,40.2,3.1,41c1.7,3.2,7.8,14.2,10,18.3c0.7,1.1,2,1.6,3.1,0
		c2.4-4.4,8.5-12,21.8-10.8C55,50,61.5,42.1,63.3,39c0.1-0.2,0.7-0.9,0.3-1.6c-0.4-0.7-0.8-1.3-1-1.8c-0.2-0.2-0.4-0.3-0.9,0.3
		C57.8,40.4,50.2,46.2,37.2,45z"/>
</g>
<path class="st3" d="M192.3,5.2c0-0.7-0.3-1.2-0.7-1.6l0,0l-7.4-6.6l0,0c-0.4-0.3-0.9-0.6-1.5-0.6c-1.2,0-2.2,1-2.2,2.2
	c0,0.7,0.3,1.2,0.7,1.6l0,0l3.1,2.8h-10.5h-9.6h-0.1h0h-1.4c-1-0.1-2-0.2-3-0.2c-13,0-23.6,10.6-23.6,23.6c0,7.9,3.9,14.9,9.8,19.2
	h-10.3l3.1-2.8l0,0c0.4-0.4,0.7-1,0.7-1.6c0-1.2-1-2.2-2.2-2.2c-0.6,0-1.1,0.2-1.5,0.6l0,0l-7.4,6.6l0,0c-0.4,0.4-0.7,1-0.7,1.6
	c0,0.7,0.3,1.2,0.7,1.6l0,0l7.4,6.6l0,0c0.4,0.3,0.9,0.6,1.5,0.6c1.2,0,2.2-1,2.2-2.2c0-0.7-0.3-1.2-0.7-1.6l0,0l-3.1-2.8h10.4h9.6
	h0.1h0h3.8h0h0h1.9c0.3,0,0.6-0.1,0.8-0.2c11.7-1.4,20.8-11.3,20.8-23.4c0-7.8-3.8-14.7-9.6-19h10.6l-3.1,2.8l0,0
	c-0.4,0.4-0.7,1-0.7,1.6c0,1.2,1,2.2,2.2,2.2c0.6,0,1.1-0.2,1.5-0.6l0,0l7.4-6.6l0,0C192,6.5,192.3,5.9,192.3,5.2z M162,36.3v2.2
	c0,0.5-0.2,0.8-0.8,0.8h-2.3c-0.7,0-0.8-0.3-0.8-0.8v-2.3c-3-0.6-5.8-2.6-5.8-5.9c0-0.7,0.2-0.8,0.8-0.8h2.8c0.7,0,1,0.1,1,0.8
	c0,0.4,0.2,0.8,0.5,1.2c0.6,0.7,1.8,1,2.8,1c1.6,0,2.8-0.3,2.8-2c0-1.6-2.6-1.6-5-2.4c-2.9-0.9-5.6-2.1-5.6-5.8c0-3.2,2.5-5,5.5-5.6
	v-2.2c0-0.5,0.2-0.8,0.8-0.8h2.3c0.7,0,0.8,0.3,0.8,0.8v2.3c2.8,0.6,5.3,2.3,5.3,5.2c0,0.7-0.2,0.8-0.8,0.8h-2.8
	c-0.6,0-0.6-0.4-0.8-0.8c-0.1-0.3-0.3-0.5-0.6-0.9c-0.5-0.5-1.6-0.8-2.5-0.8c-1,0-2.5,0.4-2.5,1.7c0,1.8,4.3,2.4,5.4,2.9
	c2.1,0.6,5.1,1.5,5.1,5.4C167.7,33.8,165.4,35.8,162,36.3z"/>
<path class="st2" d="M292.3-5.5h-37.4c-2.1,0-3.7,1.7-3.7,3.7v48.6c0,2.1,1.7,3.7,3.7,3.7h37.4c2.1,0,3.7-1.7,3.7-3.7V-1.7
	C296-3.8,294.3-5.5,292.3-5.5z M258,7h14.3v4.4H258V7z M289.1,37.5H258v-4.4h31.2V37.5z M289.1,28.8H258v-4.4h31.2V28.8z
	 M289.1,20.1H258v-4.4h31.2V20.1z"/>
<path class="st4" d="M814.6,91.7h-79.1c-1.9,0-3.4-1.5-3.4-3.4V87c0-1.9,1.5-3.4,3.4-3.4h79.1c1.9,0,3.4,1.5,3.4,3.4v1.3
	C818,90.2,816.5,91.7,814.6,91.7 M801.9,79.6h-8c-2.2,0-4-1.8-4-4V23.3c0-2.2,1.8-4,4-4h8c2.2,0,4,1.8,4,4v52.3
	C805.9,77.8,804.1,79.6,801.9,79.6 M779.1,79.6h-8c-2.2,0-4-1.8-4-4V42.1c0-2.2,1.8-4,4-4h8c2.2,0,4,1.8,4,4v33.5
	C783.1,77.8,781.3,79.6,779.1,79.6 M756.3,79.6h-8c-2.2,0-4-1.8-4-4V60.8c0-2.2,1.8-4,4-4h8c2.2,0,4,1.8,4,4v14.7
	C760.3,77.8,758.5,79.6,756.3,79.6"/>
</svg>
