<?xml version="1.0" encoding="utf-8"?>
<!-- Generator: Adobe Illustrator 21.1.0, SVG Export Plug-In . SVG Version: 6.00 Build 0)  -->
<svg version="1.1" id="Capa_1" xmlns="http://www.w3.org/2000/svg" xmlns:xlink="http://www.w3.org/1999/xlink" x="0px" y="0px"
	 viewBox="0 0 68 49" style="enable-background:new 0 0 68 49;" xml:space="preserve">
<style type="text/css">
	.st0{fill:#EC1C27;}
	.st1{fill-rule:evenodd;clip-rule:evenodd;fill:#5C5C5C;}
</style>
<path class="st0" d="M1365.4-80.4c-1-0.5-1.5-1.4-1.3-2.4c0.2-1.1,1.2-1.8,2.2-1.8c0.3,0,0.7,0.1,1,0.2c0.1,0.1,14.6,6.9,14.5,12.9
	c0.1,6-14.3,12.8-14.5,12.9c-0.3,0.2-0.7,0.2-1,0.2c-1.1,0-2-0.8-2.2-1.8c-0.2-1,0.3-2,1.3-2.4c4.3-1.9,12-6.6,12-8.9
	C1377.5-73.7,1369.6-78.5,1365.4-80.4z"/>
<path class="st1" d="M66,45.3C66,45.3,66,45.3,66,45.3c0,1.1-0.9,2-2,2H49.1c1.1-0.2,2-1.2,2-2.4c0,0,0,0,0,0h0c0,0,0-9.1-6.6-12.4
	c-2.8-1.4-3-1.1-4.4-1.5l0-3.9c0,0-1.6-1.2-2-4.9c-1,0.3-1.3-1.1-1.4-2c0-0.9-0.6-3.6,0.6-3.3c-0.2-1.8-0.4-3.5-0.3-4.3
	c0.3-3,3.2-6.2,7.8-6.5c5.3,0.2,7.4,3.4,7.7,6.5c0.1,0.9-0.1,2.5-0.3,4.3c1.2-0.2,0.7,2.5,0.6,3.3c-0.1,0.9-0.4,2.3-1.3,2
	c-0.5,3.7-2,4.9-2,4.9l0,3.9c0,0,1,0.6,5.1,2.3c4.1,1.7,2.8,0.4,6.2,2.1C66,38.1,66,45.3,66,45.3L66,45.3z M36,31.9
	c4.6,1.9,3.1,0.5,6.8,2.3c5.9,2.9,5.9,10.9,5.9,10.9h0c0,0,0,0,0,0c0,1.2-1,2.2-2.2,2.2H3.9c-1.2,0-2.2-1-2.2-2.2c0,0,0,0,0,0h0
	c0,0,0-8,5.9-10.9c3.7-1.8,2.3-0.3,6.8-2.2c4.6-1.9,5.6-2.5,5.6-2.5l0-4.3c0,0-1.7-1.3-2.2-5.4c-1.1,0.3-1.4-1.2-1.5-2.2
	c-0.1-1-0.6-3.9,0.7-3.7c-0.3-2-0.5-3.8-0.4-4.7C17,5.8,20.2,2.3,25.2,2c5.9,0.3,8.2,3.8,8.5,7.1c0.1,1-0.1,2.8-0.4,4.7
	c1.3-0.3,0.7,2.7,0.7,3.7c-0.1,1-0.4,2.5-1.5,2.2c-0.5,4.1-2.2,5.4-2.2,5.4l0,4.3C30.3,29.4,31.4,30,36,31.9"/>
</svg>
